<svg xmlns="http://www.w3.org/2000/svg" xmlns:xlink="http://www.w3.org/1999/xlink">

  <symbol id="github" viewBox="0 0 496 512">
    <title id="github-title">GitHub</title>
    <path d="M165.9 397.4c0 2-2.3 3.6-5.2 3.6-3.3.3-5.6-1.3-5.6-3.6 0-2 2.3-3.6 5.2-3.6 3-.3 5.6 1.3 5.6 3.6zm-31.1-4.5c-.7 2 1.3 4.3 4.3 4.9 2.6 1 5.6 0 6.2-2s-1.3-4.3-4.3-5.2c-2.6-.7-5.5.3-6.2 2.3zm44.2-1.7c-2.9.7-4.9 2.6-4.6 4.9.3 2 2.9 3.3 5.9 2.6 2.9-.7 4.9-2.6 4.6-4.6-.3-1.9-3-3.2-5.9-2.9zM244.8 8C106.1 8 0 113.3 0 252c0 110.9 69.8 205.8 169.5 239.2 12.8 2.3 17.3-5.6 17.3-12.1 0-6.2-.3-40.4-.3-61.4 0 0-70 15-84.7-29.8 0 0-11.4-29.1-27.8-36.6 0 0-22.9-15.7 1.6-15.4 0 0 24.9 2 38.6 25.8 21.9 38.6 58.6 27.5 72.9 20.9 2.3-16 8.8-27.1 16-33.7-55.9-6.2-112.3-14.3-112.3-110.5 0-27.5 7.6-41.3 23.6-58.9-2.6-6.5-11.1-33.3 2.6-67.9 20.9-6.5 69 27 69 27 20-5.6 41.5-8.5 62.8-8.5s42.8 2.9 62.8 8.5c0 0 48.1-33.6 69-27 13.7 34.7 5.2 61.4 2.6 67.9 16 17.7 25.8 31.5 25.8 58.9 0 96.5-58.9 104.2-114.8 110.5 9.2 7.9 17 22.9 17 46.4 0 33.7-.3 75.4-.3 83.6 0 6.5 4.6 14.4 17.3 12.1C428.2 457.8 496 362.9 496 252 496 113.3 383.5 8 244.8 8zM97.2 352.9c-1.3 1-1 3.3.7 5.2 1.6 1.6 3.9 2.3 5.2 1 1.3-1 1-3.3-.7-5.2-1.6-1.6-3.9-2.3-5.2-1zm-10.8-8.1c-.7 1.3.3 2.9 2.3 3.9 1.6 1 3.6.7 4.3-.7.7-1.3-.3-2.9-2.3-3.9-2-.6-3.6-.3-4.3.7zm32.4 35.6c-1.6 1.3-1 4.3 1.3 6.2 2.3 2.3 5.2 2.6 6.5 1 1.3-1.3.7-4.3-1.3-6.2-2.2-2.3-5.2-2.6-6.5-1zm-11.4-14.7c-1.6 1-1.6 3.6 0 5.9 1.6 2.3 4.3 3.3 5.6 2.3 1.6-1.3 1.6-3.9 0-6.2-1.4-2.3-4-3.3-5.6-2z"></path>
  </symbol>

  <symbol id="instagram" viewBox="0 0 448 512">
    <title id="instagram-title">Instagram</title>
    <path d="M224.1 141c-63.6 0-114.9 51.3-114.9 114.9s51.3 114.9 114.9 114.9S339 319.5 339 255.9 287.7 141 224.1 141zm0 189.6c-41.1 0-74.7-33.5-74.7-74.7s33.5-74.7 74.7-74.7 74.7 33.5 74.7 74.7-33.6 74.7-74.7 74.7zm146.4-194.3c0 14.9-12 26.8-26.8 26.8-14.9 0-26.8-12-26.8-26.8s12-26.8 26.8-26.8 26.8 12 26.8 26.8zm76.1 27.2c-1.7-35.9-9.9-67.7-36.2-93.9-26.2-26.2-58-34.4-93.9-36.2-37-2.1-147.9-2.1-184.9 0-35.8 1.7-67.6 9.9-93.9 36.1s-34.4 58-36.2 93.9c-2.1 37-2.1 147.9 0 184.9 1.7 35.9 9.9 67.7 36.2 93.9s58 34.4 93.9 36.2c37 2.1 147.9 2.1 184.9 0 35.9-1.7 67.7-9.9 93.9-36.2 26.2-26.2 34.4-58 36.2-93.9 2.1-37 2.1-147.8 0-184.8zM398.8 388c-7.8 19.6-22.9 34.7-42.6 42.6-29.5 11.7-99.5 9-132.1 9s-102.7 2.6-132.1-9c-19.6-7.8-34.7-22.9-42.6-42.6-11.7-29.5-9-99.5-9-132.1s-2.6-102.7 9-132.1c7.8-19.6 22.9-34.7 42.6-42.6 29.5-11.7 99.5-9 132.1-9s102.7-2.6 132.1 9c19.6 7.8 34.7 22.9 42.6 42.6 11.7 29.5 9 99.5 9 132.1s2.7 102.7-9 132.1z"></path>
  </symbol>

  <symbol id="linkedin" viewBox="0 0 448 512">
    <title id="linkedin-title">LinkedIn</title>
    <path d="M416 32H31.9C14.3 32 0 46.5 0 64.3v383.4C0 465.5 14.3 480 31.9 480H416c17.6 0 32-14.5 32-32.3V64.3c0-17.8-14.4-32.3-32-32.3zM135.4 416H69V202.2h66.5V416zm-33.2-243c-21.3 0-38.5-17.3-38.5-38.5S80.9 96 102.2 96c21.2 0 38.5 17.3 38.5 38.5 0 21.3-17.2 38.5-38.5 38.5zm282.1 243h-66.4V312c0-24.8-.5-56.7-34.5-56.7-34.6 0-39.9 27-39.9 54.9V416h-66.4V202.2h63.7v29.2h.9c8.9-16.8 30.6-34.5 62.9-34.5 67.2 0 79.7 44.3 79.7 101.9V416z"></path>
  </symbol>

  <symbol id="twitter" viewBox="0 0 512 512">
    <title id="twitter-title">Twitter</title>
    <path d="M459.37 151.716c.325 4.548.325 9.097.325 13.645 0 138.72-105.583 298.558-298.558 298.558-59.452 0-114.68-17.219-161.137-47.106 8.447.974 16.568 1.299 25.34 1.299 49.055 0 94.213-16.568 130.274-44.832-46.132-.975-84.792-31.188-98.112-72.772 6.498.974 12.995 1.624 19.818 1.624 9.421 0 18.843-1.3 27.614-3.573-48.081-9.747-84.143-51.98-84.143-102.985v-1.299c13.969 7.797 30.214 12.67 47.431 13.319-28.264-18.843-46.781-51.005-46.781-87.391 0-19.492 5.197-37.36 14.294-52.954 51.655 63.675 129.3 105.258 216.365 109.807-1.624-7.797-2.599-15.918-2.599-24.04 0-57.828 46.782-104.934 104.934-104.934 30.213 0 57.502 12.67 76.67 33.137 23.715-4.548 46.456-13.32 66.599-25.34-7.798 24.366-24.366 44.833-46.132 57.827 21.117-2.273 41.584-8.122 60.426-16.243-14.292 20.791-32.161 39.308-52.628 54.253z"></path>
  </symbol>

  <symbol id="lastfm" viewBox="0 0 512 512">
    <title id="lastfm-title">last.fm</title>
    <path d="M225.8 367.1l-18.8-51s-30.5 34-76.2 34c-40.5 0-69.2-35.2-69.2-91.5 0-72.1 36.4-97.9 72.1-97.9 66.5 0 74.8 53.3 100.9 134.9 18.8 56.9 54 102.6 155.4 102.6 72.7 0 122-22.3 122-80.9 0-72.9-62.7-80.6-115-92.1-25.8-5.9-33.4-16.4-33.4-34 0-19.9 15.8-31.7 41.6-31.7 28.2 0 43.4 10.6 45.7 35.8l58.6-7c-4.7-52.8-41.1-74.5-100.9-74.5-52.8 0-104.4 19.9-104.4 83.9 0 39.9 19.4 65.1 68 76.8 44.9 10.6 79.8 13.8 79.8 45.7 0 21.7-21.1 30.5-61 30.5-59.2 0-83.9-31.1-97.9-73.9-32-96.8-43.6-163-161.3-163C45.7 113.8 0 168.3 0 261c0 89.1 45.7 137.2 127.9 137.2 66.2 0 97.9-31.1 97.9-31.1z"></path>
  </symbol>

  <symbol id="spotify" viewBox="0 0 496 512">
    <title id="spotify-title">Spotify</title>
    <path d="M248 8C111.1 8 0 119.1 0 256s111.1 248 248 248 248-111.1 248-248S384.9 8 248 8zm100.7 364.9c-4.2 0-6.8-1.3-10.7-3.6-62.4-37.6-135-39.2-206.7-24.5-3.9 1-9 2.6-11.9 2.6-9.7 0-15.8-7.7-15.8-15.8 0-10.3 6.1-15.2 13.6-16.8 81.9-18.1 165.6-16.5 237 26.2 6.1 3.9 9.7 7.4 9.7 16.5s-7.1 15.4-15.2 15.4zm26.9-65.6c-5.2 0-8.7-2.3-12.3-4.2-62.5-37-155.7-51.9-238.6-29.4-4.8 1.3-7.4 2.6-11.9 2.6-10.7 0-19.4-8.7-19.4-19.4s5.2-17.8 15.5-20.7c27.8-7.8 56.2-13.6 97.8-13.6 64.9 0 127.6 16.1 177 45.5 8.1 4.8 11.3 11 11.3 19.7-.1 10.8-8.5 19.5-19.4 19.5zm31-76.2c-5.2 0-8.4-1.3-12.9-3.9-71.2-42.5-198.5-52.7-280.9-29.7-3.6 1-8.1 2.6-12.9 2.6-13.2 0-23.3-10.3-23.3-23.6 0-13.6 8.4-21.3 17.4-23.9 35.2-10.3 74.6-15.2 117.5-15.2 73 0 149.5 15.2 205.4 47.8 7.8 4.5 12.9 10.7 12.9 22.6 0 13.6-11 23.3-23.2 23.3z"></path>
  </symbol>

  <symbol id="keybase" viewBox="0 0 24 24">
    <title id="simpleicons-keybase-icon">Keybase</title>
    <path d="M10.446 21.371c0 .528-.428.953-.954.953-.525 0-.954-.425-.954-.953 0-.526.428-.954.953-.954.524 0 .951.431.951.955m5.922-.001c0 .528-.428.953-.955.953-.526 0-.952-.425-.952-.953 0-.526.423-.954.949-.954s.954.431.954.955"/><path d="M20.904 12.213l-.156-.204c-.046-.06-.096-.116-.143-.175-.045-.061-.094-.113-.141-.169-.104-.12-.209-.239-.319-.359l-.076-.08-.091-.099-.135-.131c-.015-.018-.032-.034-.05-.053-1.16-1.139-2.505-1.986-3.955-2.504l-.23-.078c.012-.027.024-.055.035-.083.41-1.064.367-2.223-.12-3.255-.491-1.035-1.356-1.8-2.438-2.16-.656-.216-1.23-.319-1.711-.305-.033-.105-.1-.577.496-1.848L10.663 0l-.287.399c-.33.455-.648.895-.945 1.328-.328-.345-.766-.552-1.245-.58L6.79 1.061h-.012c-.033-.003-.07-.003-.104-.003-.99 0-1.81.771-1.87 1.755l-.088 1.402v.003c-.061 1.029.727 1.915 1.755 1.979l1.002.061c-.065.84.073 1.62.405 2.306-1.346.562-2.586 1.401-3.66 2.484C.913 14.391.913 18.051.913 20.994v1.775l1.305-1.387c.266.93.652 1.807 1.145 2.615H5.06c-.833-1.114-1.419-2.426-1.68-3.848l1.913-2.03-.985 3.091 1.74-1.268c3.075-2.234 6.744-2.75 10.91-1.529 1.805.532 3.56.039 4.473-1.257l.104-.165c.091.498.141.998.141 1.496 0 1.563-.255 3.687-1.38 5.512h1.611c.776-1.563 1.181-3.432 1.181-5.512-.001-2.199-.786-4.421-2.184-6.274zM8.894 6.191c.123-1.002.578-1.949 1.23-2.97.025.05.054.097.084.144.264.398.713.625 1.199.605.217-.008.605.025 1.233.232.714.236 1.286.744 1.608 1.425s.349 1.442.079 2.149c-.173.445-.454.82-.806 1.109l-.408-.502-.002-.003c-.279-.341-.694-.535-1.134-.535-.335 0-.664.117-.925.33-.334.27-.514.66-.534 1.058-1.2-.541-1.8-1.643-1.628-3.041l.004-.001zm4.304 5.11l-.519.425c-.046.036-.095.053-.146.053-.066 0-.133-.03-.177-.085l-.111-.135c-.083-.1-.067-.25.034-.334l.51-.42-1.055-1.299c-.109-.133-.091-.33.044-.436.058-.048.126-.072.194-.072.091 0 .181.038.24.113l2.963 3.645c.109.135.09.33-.042.436-.039.029-.082.053-.126.063-.023.006-.045.009-.07.009-.09 0-.178-.04-.24-.113l-.295-.365-1.045.854c-.046.037-.1.055-.154.055-.068 0-.139-.03-.186-.09l-.477-.579c-.082-.102-.068-.252.035-.336l1.051-.857-.426-.533-.002.001zM7.753 4.866l-1.196-.075c-.255-.015-.45-.235-.435-.488l.09-1.401c.014-.245.216-.436.461-.436h.024l1.401.091c.123.006.236.06.317.152.083.094.123.21.116.336l-.007.101c-.32.567-.585 1.134-.773 1.72h.002zm12.524 11.481c-.565.805-1.687 1.081-2.924.718-3.886-1.141-7.396-.903-10.468.701l1.636-5.123-5.291 5.609c.099-3.762 2.453-6.966 5.758-8.311.471.373 1.034.66 1.673.841.16.044.322.074.48.102-.183.458-.119.997.21 1.407l.075.09c-.172.45-.105.975.221 1.374l.475.582c.266.325.659.513 1.079.513.321 0 .635-.111.886-.314l.285-.232c.174.074.367.113.566.113.113 0 .222-.01.33-.035.218-.05.424-.15.598-.291.623-.51.72-1.435.209-2.06l-1.67-2.056c.145-.117.281-.244.408-.381.135.037.271.078.4.12.266.097.533.198.795.315 1.005.445 1.954 1.1 2.771 1.897.029.03.059.055.085.083l.17.175c.038.039.076.079.111.12.079.085.16.175.239.267l.126.15c.045.053.086.104.13.16l.114.15c.04.051.079.102.117.154.838 1.149.987 2.329.404 3.157v.005z"/><path d="M7.719 4.115l-.835-.051.053-.835.834.051-.052.835z"/>
  </symbol>

</svg>
